<?xml version="1.0" encoding="utf-8"?>
<!-- Generator: Adobe Illustrator 16.0.0, SVG Export Plug-In . SVG Version: 6.00 Build 0)  -->
<!DOCTYPE svg PUBLIC "-//W3C//DTD SVG 1.1//EN" "http://www.w3.org/Graphics/SVG/1.1/DTD/svg11.dtd">
<svg version="1.1" id="Calque_1" xmlns="http://www.w3.org/2000/svg" xmlns:xlink="http://www.w3.org/1999/xlink" x="0px" y="0px"
	 width="864.678px" height="334.986px" viewBox="0 0 864.678 334.986" enable-background="new 0 0 864.678 334.986"
	 xml:space="preserve">
<g>
	<rect fill="#1C1C1C" width="864.678" height="334.986"/>
	<g opacity="0.4">
		<polygon fill="#181818" points="142.325,165.675 142.547,166.097 358.707,260.351 359.082,260.19 359.146,260.076 311.334,0 
			277.947,0 142.119,165.28 		"/>
		<polygon fill="#1C1C1C" points="455.221,21.697 395.938,0 311.334,0 359.146,260.076 		"/>
		<polygon fill="#181818" points="0,173.088 141.675,165.304 142.547,166.097 222.787,310.9 		"/>
		<polygon fill="#161616" points="142.547,166.097 358.707,260.351 222.787,310.9 		"/>
		<polygon fill="#181818" points="359.146,260.076 455.221,21.697 739.787,22.613 359.148,260.158 		"/>
		<polygon fill="#1C1C1C" points="864.678,100.486 864.678,0 768.389,0 739.787,22.613 		"/>
		<polygon fill="#131313" points="739.787,22.613 708.344,0 474.371,0 455.221,21.697 		"/>
		<polygon fill="#131313" points="359.148,260.158 739.787,22.613 655.092,171.546 		"/>
		<polygon fill="#181818" points="759.523,326.62 761.156,334.986 802.664,334.986 		"/>
		<polygon fill="#181818" points="655.092,171.546 759.523,326.62 802.664,334.986 864.678,334.986 864.678,285.424 		"/>
		<polygon fill="#131313" points="864.678,285.424 864.678,121.377 655.092,171.546 		"/>
		<polygon fill="#181818" points="739.787,22.613 655.092,171.546 864.678,121.377 864.678,100.486 		"/>
		<polygon fill="#161616" points="142.119,165.28 277.947,0 61.988,0 		"/>
		<polygon fill="#161616" points="0,39.564 141.675,165.304 142.119,165.28 61.988,0 0,0 		"/>
		<polygon fill="#0F0F0F" points="141.675,165.304 0,39.564 0,173.088 		"/>
		<polygon fill="#0D0C0C" points="89.418,334.986 222.787,310.9 0,173.088 15.485,334.986 		"/>
		<polygon fill="#181818" points="89.418,334.986 214.955,334.986 222.787,310.9 		"/>
		<polygon fill="#181818" points="214.955,334.986 242.715,334.986 222.787,310.9 		"/>
		<polygon fill="#131313" points="358.707,260.351 222.787,310.9 242.715,334.986 338.355,334.986 359.023,260.479 		"/>
		<polygon fill="#1C1C1C" points="359.023,260.479 338.355,334.986 466.109,334.986 359.291,260.589 		"/>
		<polygon fill="#181818" points="359.148,260.158 359.082,260.19 359.023,260.479 359.291,260.589 466.109,334.986 
			571.279,334.986 655.092,171.546 		"/>
		<polygon fill="#161616" points="655.092,171.546 571.279,334.986 730.495,334.986 759.523,326.62 		"/>
	</g>
</g>
</svg>
